<?xml version="1.0" encoding="UTF-8" standalone="no"?>
<!DOCTYPE svg PUBLIC "-//W3C//DTD SVG 1.1//EN" "http://www.w3.org/Graphics/SVG/1.1/DTD/svg11.dtd">
<svg width="100%" height="100%" viewBox="0 0 680 320" version="1.1" xmlns="http://www.w3.org/2000/svg" xmlns:xlink="http://www.w3.org/1999/xlink" xml:space="preserve" xmlns:serif="http://www.serif.com/" style="fill-rule:evenodd;clip-rule:evenodd;stroke-linecap:round;stroke-miterlimit:10;">
    <g transform="matrix(1,0,0,1,-146.625,-214.814)">
        <g transform="matrix(1,-0,-0,1,146.625,214.814)">
            <path d="M623.095,31.142L627.595,37.892L623.095,44.642" style="fill:none;stroke:black;stroke-width:1px;"/>
            <path d="M151.619,37.892L627.595,37.892" style="fill:none;stroke:black;stroke-width:1px;stroke-linejoin:round;stroke-miterlimit:1.5;"/>
        </g>
    </g>
    <g transform="matrix(1,0,0,1,-146.625,-214.814)">
        <path d="M298.245,384L774.822,384" style="fill:none;stroke:black;stroke-width:1px;stroke-linejoin:round;stroke-miterlimit:1.5;"/>
    </g>
    <g transform="matrix(1,0,0,1,-563.032,-261.269)">
        <g transform="matrix(1.50754,0,0,0.845394,-234.371,123.066)">
            <path d="M623.002,198.092L623.002,218.506C623.002,224.139 620.437,228.712 617.278,228.712L554.844,228.712C551.685,228.712 549.121,224.139 549.121,218.506L549.121,198.092C549.121,192.459 551.685,187.886 554.844,187.886L617.278,187.886C620.437,187.886 623.002,192.459 623.002,198.092Z" style="fill:rgb(252,253,242);stroke:rgb(25,26,28);stroke-width:3.27px;stroke-miterlimit:1.5;"/>
        </g>
        <g transform="matrix(0.702065,0,0,0.702065,174.395,96.3743)">
            <g transform="matrix(24,0,0,24,729.122,296.271)">
            </g>
            <text x="622.466px" y="296.271px" style="font-family:'TiltWarp-Regular', 'Tilt Warp';font-size:24px;fill:rgb(25,26,28);">publisher</text>
        </g>
    </g>
    <g transform="matrix(1,0,0,1,-563.032,-129.976)">
        <g transform="matrix(1.50754,0,0,0.845394,-234.371,123.066)">
            <path d="M623.002,198.092L623.002,218.506C623.002,224.139 620.437,228.712 617.278,228.712L554.844,228.712C551.685,228.712 549.121,224.139 549.121,218.506L549.121,198.092C549.121,192.459 551.685,187.886 554.844,187.886L617.278,187.886C620.437,187.886 623.002,192.459 623.002,198.092Z" style="fill:rgb(252,253,242);stroke:rgb(25,26,28);stroke-width:3.27px;stroke-miterlimit:1.5;"/>
        </g>
        <g transform="matrix(0.702065,0,0,0.702065,168.084,96.2659)">
            <g transform="matrix(24,0,0,24,740.33,296.271)">
            </g>
            <text x="622.466px" y="296.271px" style="font-family:'TiltWarp-Regular', 'Tilt Warp';font-size:24px;fill:rgb(25,26,28);">subscriber</text>
        </g>
    </g>
    <g transform="matrix(1,0,0,1,-146.625,-214.814)">
        <path d="M356.181,281.259L356.181,356.552" style="fill:none;stroke:rgb(25,26,28);stroke-width:1.5px;stroke-linejoin:round;stroke-miterlimit:1.5;"/>
    </g>
    <g transform="matrix(1,0,0,1.71945,-82.041,-417.126)">
        <path d="M356.181,281.259L356.181,356.552" style="fill:none;stroke:rgb(25,26,28);stroke-width:1.07px;stroke-linejoin:round;stroke-miterlimit:1.5;"/>
    </g>
    <g transform="matrix(1,0,0,2.39547,0.416955,-607.26)">
        <path d="M356.181,281.259L356.181,356.552" style="fill:none;stroke:rgb(25,26,28);stroke-width:0.82px;stroke-linejoin:round;stroke-miterlimit:1.5;"/>
    </g>
    <g transform="matrix(1,0,0,1,-146.625,-214.814)">
        <g transform="matrix(1.22665,0,0,1.22665,-151.04,-53.365)">
            <circle cx="413.5" cy="248.033" r="12.584" style="fill:rgb(243,186,248);"/>
        </g>
        <g transform="matrix(1,0,0,1,-38.653,91.1203)">
            <g transform="matrix(12,0,0,12,399.18,163.85)">
            </g>
            <text x="388.944px" y="163.85px" style="font-family:'TiltWarp-Regular', 'Tilt Warp';font-size:12px;">c1</text>
        </g>
    </g>
    <g transform="matrix(1,0,0,1,-82.041,-214.5)">
        <g transform="matrix(1.22665,0,0,1.22665,-151.04,-53.365)">
            <circle cx="413.5" cy="248.033" r="12.584" style="fill:rgb(248,215,186);"/>
        </g>
        <g transform="matrix(1,0,0,1,-38.653,91.1203)">
            <g transform="matrix(12,0,0,12,401.088,163.85)">
            </g>
            <text x="388.944px" y="163.85px" style="font-family:'TiltWarp-Regular', 'Tilt Warp';font-size:12px;">c2</text>
        </g>
    </g>
    <g transform="matrix(1,0,0,1,0.416955,-214.567)">
        <g transform="matrix(1.22665,0,0,1.22665,-151.04,-53.365)">
            <circle cx="413.5" cy="248.033" r="12.584" style="fill:rgb(190,248,186);stroke:rgb(190,248,186);stroke-width:2.85px;stroke-linejoin:round;stroke-miterlimit:1.5;"/>
        </g>
        <g transform="matrix(1,0,0,1,-38.653,91.1203)">
            <g transform="matrix(12,0,0,12,400.92,163.85)">
            </g>
            <text x="388.944px" y="163.85px" style="font-family:'TiltWarp-Regular', 'Tilt Warp';font-size:12px;">c3</text>
        </g>
    </g>
    <g transform="matrix(1,0,0,1,-146.625,-214.814)">
        <g transform="matrix(1,0,0,0.987871,0,2.69564)">
            <path d="M536.533,385.986C536.533,394.896 529.387,402.129 520.586,402.129L356.692,402.129C347.891,402.129 340.745,394.896 340.745,385.986C340.745,377.076 347.891,369.843 356.692,369.843L520.586,369.843C529.387,369.843 536.533,377.076 536.533,385.986Z" style="fill:rgb(235,235,235);stroke:rgb(243,186,248);stroke-width:3.52px;stroke-linejoin:round;stroke-miterlimit:1.5;"/>
        </g>
        <g transform="matrix(1,0,0,1,-34.087,224.235)">
            <g transform="matrix(12,0,0,12,454.272,163.85)">
            </g>
            <text x="388.944px" y="163.85px" style="font-family:'TiltWarp-Regular', 'Tilt Warp';font-size:12px;">e<tspan x="395.628px 401.868px " y="163.85px 163.85px ">xe</tspan>c with c1</text>
        </g>
    </g>
    <g transform="matrix(1,0,0,1,-82.041,-213.1)">
        <g transform="matrix(1,0,0,0.987871,0,51.2236)">
            <path d="M536.533,385.986C536.533,394.896 529.387,402.129 520.586,402.129L356.692,402.129C347.891,402.129 340.745,394.896 340.745,385.986C340.745,377.076 347.891,369.843 356.692,369.843L520.586,369.843C529.387,369.843 536.533,377.076 536.533,385.986Z" style="fill:rgb(235,235,235);stroke:rgb(248,215,186);stroke-width:3.52px;stroke-linejoin:round;stroke-miterlimit:1.5;"/>
        </g>
        <g transform="matrix(1,0,0,1,-34.087,272.763)">
            <g transform="matrix(12,0,0,12,456.18,163.85)">
            </g>
            <text x="388.944px" y="163.85px" style="font-family:'TiltWarp-Regular', 'Tilt Warp';font-size:12px;">e<tspan x="395.628px 401.868px " y="163.85px 163.85px ">xe</tspan>c with c2</text>
        </g>
    </g>
    <g transform="matrix(1,0,0,1,0.416955,-214.814)">
        <g transform="matrix(1,0,0,0.987871,0,103.384)">
            <path d="M536.533,385.986C536.533,394.896 529.387,402.129 520.586,402.129L356.692,402.129C347.891,402.129 340.745,394.896 340.745,385.986C340.745,377.076 347.891,369.843 356.692,369.843L520.586,369.843C529.387,369.843 536.533,377.076 536.533,385.986Z" style="fill:rgb(235,235,235);stroke:rgb(190,248,186);stroke-width:3.52px;stroke-linejoin:round;stroke-miterlimit:1.5;"/>
        </g>
        <g transform="matrix(1,0,0,1,-34.087,324.924)">
            <g transform="matrix(12,0,0,12,456.012,163.85)">
            </g>
            <text x="388.944px" y="163.85px" style="font-family:'TiltWarp-Regular', 'Tilt Warp';font-size:12px;">e<tspan x="395.628px 401.868px " y="163.85px 163.85px ">xe</tspan>c with c3</text>
        </g>
    </g>
</svg>
